HIERARCHY
ROOT Hips
{
	OFFSET 0.00000 0.00000 0.00000
	CHANNELS 6 Xposition Yposition Zposition Zrotation Yrotation Xrotation 
	JOINT LHipJoint
	{
		OFFSET 0 0 0
		CHANNELS 3 Zrotation Yrotation Xrotation
		JOINT LeftHip
		{
			OFFSET 1.59801 -1.77853 0.57028
			CHANNELS 3 Zrotation Yrotation Xrotation
			JOINT LeftKnee
			{
				OFFSET 2.39439 -6.57854 0.00000
				CHANNELS 3 Zrotation Yrotation Xrotation
				JOINT LeftAnkle
				{
					OFFSET 2.69334 -7.39989 0.00000
					CHANNELS 3 Zrotation Yrotation Xrotation
					JOINT LeftToe
					{
						OFFSET 0.09553 -0.26245 1.73747
						CHANNELS 3 Zrotation Yrotation Xrotation
						End Site
						{
							OFFSET 0.00000 -0.00000 0.89391
						}
					}
				}
			}
		}
	}
	JOINT RHipJoint
	{
		OFFSET 0 0 0
		CHANNELS 3 Zrotation Yrotation Xrotation
		JOINT RightHip
		{
			OFFSET -1.54704 -1.77852 0.57028
			CHANNELS 3 Zrotation Yrotation Xrotation
			JOINT RightKnee
			{
				OFFSET -2.40286 -6.60180 0.00000
				CHANNELS 3 Zrotation Yrotation Xrotation
				JOINT RightAnkle
				{
					OFFSET -2.63873 -7.24984 0.00000
					CHANNELS 3 Zrotation Yrotation Xrotation
					JOINT RightToe
					{
						OFFSET -0.15631 -0.42945 1.84436
						CHANNELS 3 Zrotation Yrotation Xrotation
						End Site
						{
							OFFSET -0.00000 -0.00000 0.95734
						}
					}
				}
			}
		}
	}
	JOINT lowerback
	{
		OFFSET 0 0 0
		CHANNELS 3 Zrotation Yrotation Xrotation
		JOINT Chest
		{
			OFFSET -0.00436 1.89866 -0.04018
			CHANNELS 3 Zrotation Yrotation Xrotation
			JOINT Chest2
			{
				OFFSET 0.02031 1.88273 0.09634
				CHANNELS 3 Zrotation Yrotation Xrotation
				JOINT lowerneck
				{
					OFFSET 0 0 0
					CHANNELS 3 Zrotation Yrotation Xrotation
					JOINT Neck
					{
						OFFSET -0.13105 1.89371 0.23083
						CHANNELS 3 Zrotation Yrotation Xrotation
						JOINT Head
						{
							OFFSET 0.17062 1.83990 -0.54062
							CHANNELS 3 Zrotation Yrotation Xrotation
							End Site
							{
								OFFSET 0.04576 1.94782 -0.21839
							}
						}
					}
				}
				JOINT LeftCollar
				{
					OFFSET 0 0 0
					CHANNELS 3 Zrotation Yrotation Xrotation
					JOINT LeftShoulder
					{
						OFFSET 3.12424 1.09204 0.22226
CHANNELS 3 Zrotation Xrotation Yrotation
						JOINT LeftElbow
						{
OFFSET 0 -5.292770 0.000000
CHANNELS 3 Zrotation Xrotation Yrotation
							JOINT LeftWrist
							{
OFFSET 0 -2.852260 0.000000
CHANNELS 3 Zrotation Xrotation Yrotation
								JOINT lhand
								{
									OFFSET 0 0 0
CHANNELS 3 Zrotation Xrotation Yrotation
									JOINT LFingers
									{
OFFSET 0 -0.602100 0.000000
CHANNELS 3 Zrotation Xrotation Yrotation
										End Site
										{
OFFSET 0 -0.485430 0.000000
										}
									}
								}
								JOINT LThumb
								{
OFFSET 0 0.000000 0.000000
CHANNELS 3 Zrotation Xrotation Yrotation
									End Site
									{
OFFSET 0 -0.492840 0.492840
									}
								}
							}
						}
					}
				}
				JOINT RightCollar
				{
					OFFSET 0 0 0
					CHANNELS 3 Zrotation Yrotation Xrotation
					JOINT RightShoulder
					{
						OFFSET -2.91709 1.01504 0.30199
CHANNELS 3 Zrotation Xrotation Yrotation
						JOINT RightElbow
						{
OFFSET 0 -5.133040 0.000000
CHANNELS 3 Zrotation Xrotation Yrotation
							JOINT RightWrist
							{
OFFSET 0 -2.743050 0.000000
CHANNELS 3 Zrotation Xrotation Yrotation
								JOINT rhand
								{
									OFFSET 0 0 0
CHANNELS 3 Zrotation Xrotation Yrotation
									JOINT RFingers
									{
OFFSET 0 -0.767980 0.000000
CHANNELS 3 Zrotation Xrotation Yrotation
										End Site
										{
OFFSET 0 -0.619160 0.000000
										}
									}
								}
								JOINT RThumb
								{
OFFSET 0 0.000000 0.000000
CHANNELS 3 Zrotation Xrotation Yrotation
									End Site
									{
OFFSET 0 -0.628620 0.628620
									}
								}
							}
						}
					}
				}
			}
		}
	}
}
MOTION
Frames: 13
Frame Time: 0.008333333333333333
0.267700 17.483400 0.607400 -0.343200 3.469900 6.571000 0.000000 0.000000 0.000000 -18.392900 -21.096300 0.237200 0.500900 4.537100 12.592900 0.328500 7.644900 -16.222900 0.956300 -6.227200 -17.445000 0.000000 0.000000 0.000000 0.000000 0.000000 0.000000 0.000000 0.000000 0.000000 -0.000000 -0.000000 0.000000 -0.000000 -0.000000 0.000000 -1.340200 -0.324400 -2.537100 0.815400 -0.405300 -3.566500 1.585600 -0.158300 -2.222800 -19.250300 -12.393400 -8.548200 20.623300 -18.903700 18.793000 7.906000 -8.512300 11.496700 -0.000000 0.000000 0.000000 -1.301500 -0.471700 -31.469700 6.219700 -10.628000 0.579100 3.721600 19.717300 -24.871400 0.000000 0.000000 0.000000 -7.125000 0.000000 0.000000 -26.462300 52.879500 5.435200 -0.000000 0.000000 0.000000 -5.353000 8.985700 41.868800 -15.683600 -25.089800 -3.510700 1.405900 9.909700 -13.532300 0.000000 0.000000 0.000000 7.125000 0.000000 -0.000000 19.530300 16.876400 13.854500
0.263127 17.482673 0.615269 -0.324819 3.551555 6.398731 0.000000 0.000000 0.000000 -18.464868 -21.112505 0.459081 0.502595 4.544661 12.614239 0.327037 7.656362 -16.215651 0.939054 -6.172408 -17.285396 0.000000 0.000000 0.000000 0.000000 0.000000 0.000000 0.000000 0.000000 0.000000 0.000000 0.000000 0.000000 0.000000 0.000000 0.000000 -1.456625 -0.426942 -2.532738 0.803852 -0.541406 -3.582074 1.638388 -0.223529 -2.235458 -19.327934 -12.314387 -8.778012 20.278737 -18.721188 19.208063 7.826826 -8.440170 11.616132 0.000000 0.000000 0.000000 -2.055837 -1.564104 -31.259931 4.679885 -8.043478 0.329231 4.648256 23.719076 -25.018039 0.000000 0.000000 0.000000 -7.125000 0.000000 0.000000 -25.679342 53.173057 5.447106 0.000000 0.000000 0.000000 -3.894303 8.745712 40.225341 -14.159657 -22.962332 -2.890172 -1.606186 12.274838 -13.504289 0.000000 0.000000 0.000000 7.125000 0.000000 0.000000 17.552537 16.833141 12.314058
0.259981 17.479616 0.622580 -0.329385 3.488295 6.402640 0.000000 0.000000 0.000000 -18.487952 -21.052394 0.448690 0.507272 4.565438 12.673148 0.328276 7.670804 -16.245564 0.972521 -6.277950 -17.593158 0.000000 0.000000 0.000000 0.000000 0.000000 0.000000 0.000000 0.000000 0.000000 0.000000 0.000000 0.000000 0.000000 0.000000 0.000000 -1.569983 -0.473059 -2.650142 0.821926 -0.600101 -3.621225 1.719423 -0.249908 -2.206802 -19.275008 -12.189901 -8.918563 19.941604 -18.417201 19.161439 7.737320 -8.316749 11.502683 0.000000 0.000000 0.000000 -2.001762 -0.636371 -31.072937 5.801363 -9.930065 0.504920 1.313361 26.050859 -23.590957 0.000000 0.000000 0.000000 -7.125000 0.000000 0.000000 -27.921161 51.338991 4.665793 0.000000 0.000000 0.000000 -2.295140 8.535368 35.518428 -13.320018 -21.754319 -2.570702 -1.437059 17.031986 -13.665958 0.000000 0.000000 0.000000 7.125000 0.000000 0.000000 17.650434 16.683882 12.450783
0.261400 17.479626 0.631364 -0.545688 3.376121 6.293293 0.000000 0.000000 0.000000 -18.345308 -20.900824 0.497227 0.521700 4.629114 12.853717 0.359002 7.496390 -16.470580 0.886904 -6.002907 -16.793016 0.000000 0.000000 0.000000 0.000000 0.000000 0.000000 0.000000 0.000000 0.000000 0.000000 0.000000 0.000000 0.000000 0.000000 0.000000 -1.524289 -0.536012 -2.631364 0.889487 -0.683879 -3.648164 1.763001 -0.291456 -2.241263 -18.924030 -11.966271 -8.911204 19.680449 -18.034692 18.940935 7.646412 -8.143136 11.256437 0.000000 0.000000 0.000000 -1.581620 0.974670 -30.768899 7.909342 -13.405543 0.931327 -1.506377 28.062961 -21.384401 0.000000 0.000000 0.000000 -7.125000 0.000000 0.000000 -29.199532 48.964891 3.097223 0.000000 0.000000 0.000000 -1.553000 8.262907 30.361339 -13.240246 -21.638213 -2.541173 -0.120590 20.343411 -13.563885 0.000000 0.000000 0.000000 7.125000 0.000000 0.000000 18.527521 16.815539 13.083209
0.260885 17.478300 0.638198 -0.384850 3.310486 6.143534 0.000000 0.000000 0.000000 -18.592146 -20.737246 0.836400 0.499947 4.532867 12.580839 0.348581 7.542797 -16.382622 0.908701 -6.074025 -16.999409 0.000000 0.000000 0.000000 0.000000 0.000000 0.000000 0.000000 0.000000 0.000000 0.000000 0.000000 0.000000 0.000000 0.000000 0.000000 -1.862917 -0.613239 -2.673513 0.846258 -0.783360 -3.527949 1.906375 -0.336452 -2.086414 -18.897374 -11.777020 -8.908575 19.837918 -17.749922 18.667541 7.752482 -8.005153 11.105249 0.000000 0.000000 0.000000 -1.304445 2.102004 -38.926314 9.794559 -16.417528 1.416449 -0.737676 21.270051 -22.076469 0.000000 0.000000 0.000000 -7.125000 0.000000 0.000000 -28.901296 49.685140 3.608246 0.000000 0.000000 0.000000 -1.898932 8.031079 30.173695 -13.514129 -22.035785 -2.643070 -1.131958 18.972231 -13.603514 0.000000 0.000000 0.000000 7.125000 0.000000 0.000000 17.857664 16.752124 12.584016
0.261366 17.476262 0.645681 -0.338460 3.015605 5.991906 0.000000 0.000000 0.000000 -18.761951 -20.364277 1.057270 0.493219 4.502986 12.496175 0.343862 7.619910 -16.396522 0.963301 -6.249270 -17.509470 0.000000 0.000000 0.000000 0.000000 0.000000 0.000000 0.000000 0.000000 0.000000 0.000000 0.000000 0.000000 0.000000 0.000000 0.000000 -2.119574 -0.654572 -2.571472 0.810937 -0.838773 -3.577677 2.015149 -0.356933 -2.189944 -18.866979 -11.589150 -8.782489 20.037271 -17.568495 18.737625 7.874882 -7.914132 11.084483 0.000000 0.000000 0.000000 -1.532758 2.941195 -40.910548 10.928785 -18.178868 1.753772 0.579448 19.074129 -22.685014 0.000000 0.000000 0.000000 -7.125000 0.000000 0.000000 -28.061233 50.422415 4.026761 0.000000 0.000000 0.000000 -2.561965 8.414680 31.899464 -13.940285 -22.649244 -2.805077 -1.532294 17.755275 -13.859698 0.000000 0.000000 0.000000 7.125000 0.000000 0.000000 17.571054 16.496475 12.464142
0.258932 17.473487 0.651003 -0.486288 2.763671 5.842964 0.000000 0.000000 0.000000 -18.665068 -20.087110 1.057630 0.513238 4.592026 12.748553 0.382277 7.374247 -16.647449 0.856671 -5.902482 -16.501693 0.000000 0.000000 0.000000 0.000000 0.000000 0.000000 0.000000 0.000000 0.000000 0.000000 0.000000 0.000000 0.000000 0.000000 0.000000 -2.196037 -0.689439 -2.613503 0.816216 -0.883649 -3.555802 2.062480 -0.378467 -2.140553 -18.691713 -11.434921 -8.730782 20.069223 -17.432406 18.959482 7.900090 -7.838695 11.108930 0.000000 0.000000 0.000000 -1.711047 3.195677 -40.030318 11.131735 -18.489903 1.817504 1.851035 19.097419 -21.524700 0.000000 0.000000 0.000000 -7.125000 0.000000 0.000000 -26.268841 49.585572 3.166380 0.000000 0.000000 0.000000 -2.989153 8.363927 34.126199 -13.809970 -22.462392 -2.755121 -1.815471 16.615862 -13.527973 0.000000 0.000000 0.000000 7.125000 0.000000 0.000000 17.412080 16.804515 12.216516
0.254178 17.471747 0.657341 -0.644862 2.297422 5.711800 0.000000 0.000000 0.000000 -18.575389 -19.582963 1.058486 0.526527 4.650038 12.913005 0.402938 7.310734 -16.845143 0.837682 -5.838402 -16.316173 0.000000 0.000000 0.000000 0.000000 0.000000 0.000000 0.000000 0.000000 0.000000 0.000000 0.000000 0.000000 0.000000 0.000000 0.000000 -2.214404 -0.663458 -2.455047 0.814115 -0.853546 -3.722729 2.074379 -0.357871 -2.403364 -18.534827 -11.340981 -8.685984 19.857351 -17.358666 19.397078 7.827078 -7.807840 11.201574 0.000000 0.000000 0.000000 -1.709539 3.214071 -38.629246 10.740995 -17.890190 1.695500 2.722174 19.118115 -22.181852 0.000000 0.000000 0.000000 -7.125000 0.000000 0.000000 -25.830272 50.307403 3.589618 0.000000 0.000000 0.000000 -3.008857 8.539328 35.288723 -13.446903 -21.938481 -2.617902 -2.353670 17.222948 -13.814667 0.000000 0.000000 0.000000 7.125000 0.000000 0.000000 17.031743 16.513572 12.036867
0.253315 17.471510 0.658935 -0.748779 1.992888 5.568292 0.000000 0.000000 0.000000 -18.551345 -19.228133 1.142438 0.530030 4.665320 12.956446 0.398659 7.382481 -16.858459 0.883959 -5.993335 -16.764992 0.000000 0.000000 0.000000 0.000000 0.000000 0.000000 0.000000 0.000000 0.000000 0.000000 0.000000 0.000000 0.000000 0.000000 0.000000 -2.201010 -0.644107 -2.531294 0.775678 -0.826598 -3.647283 2.025828 -0.347656 -2.284574 -18.407721 -11.267035 -8.726358 19.818801 -17.274001 19.493467 7.810402 -7.759945 11.207528 0.000000 0.000000 0.000000 -1.637642 2.650883 -35.929384 9.871169 -16.537741 1.438088 3.094230 20.515217 -22.193977 0.000000 0.000000 0.000000 -7.125000 0.000000 0.000000 -25.495737 50.376245 3.581736 0.000000 0.000000 0.000000 -2.536152 8.109192 34.192807 -12.916542 -21.164739 -2.423045 -1.538437 19.102155 -14.156301 0.000000 0.000000 0.000000 7.125000 0.000000 0.000000 17.542023 16.213510 12.555372
0.250574 17.470135 0.659977 -0.704370 1.705224 5.439342 0.000000 0.000000 0.000000 -18.663421 -18.886866 1.274674 0.526478 4.649935 12.912677 0.398752 7.406996 -16.882635 0.887733 -6.005822 -16.801285 0.000000 0.000000 0.000000 0.000000 0.000000 0.000000 0.000000 0.000000 0.000000 0.000000 0.000000 0.000000 0.000000 0.000000 0.000000 -2.351511 -0.680401 -2.465797 0.742828 -0.876280 -3.686181 2.077346 -0.367958 -2.357710 -18.578932 -11.230169 -8.790053 19.858433 -17.248393 19.782997 7.872037 -7.751404 11.344202 0.000000 0.000000 0.000000 -1.748364 2.065626 -31.668675 8.908740 -15.014752 1.176386 2.677715 23.207270 -22.638307 0.000000 0.000000 0.000000 -7.125000 0.000000 0.000000 -26.121437 50.710029 3.905842 0.000000 0.000000 0.000000 -2.171454 7.772492 32.475534 -12.509671 -20.564464 -2.278151 -1.356159 20.947199 -14.005173 0.000000 0.000000 0.000000 7.125000 0.000000 0.000000 17.674774 16.363086 12.599689
0.249157 17.468868 0.664825 -0.663331 1.423775 5.345456 0.000000 0.000000 0.000000 -18.762741 -18.537537 1.439755 0.513687 4.593959 12.754016 0.426254 7.196502 -17.024913 0.769453 -5.599152 -15.626124 0.000000 0.000000 0.000000 0.000000 0.000000 0.000000 0.000000 0.000000 0.000000 0.000000 0.000000 0.000000 0.000000 0.000000 0.000000 -2.519501 -0.757101 -2.528367 0.768283 -0.975816 -3.723691 2.196790 -0.412873 -2.353545 -18.408626 -11.217707 -8.965097 19.410117 -17.155365 20.018601 7.683491 -7.718055 11.373717 0.000000 0.000000 0.000000 -1.839077 1.650847 -27.863221 8.070170 -13.666412 0.968715 3.973070 26.262693 -22.695545 0.000000 0.000000 0.000000 -7.125000 0.000000 0.000000 -24.959989 50.967233 3.876319 0.000000 0.000000 0.000000 -2.170035 7.659676 31.757073 -12.448386 -20.473629 -2.256693 -1.856776 21.623925 -13.866559 0.000000 0.000000 0.000000 7.125000 0.000000 0.000000 17.356203 16.479981 12.302716
0.252609 17.467739 0.663148 -0.632732 1.141688 5.121146 0.000000 0.000000 0.000000 -18.933318 -18.191397 1.620943 0.518561 4.615158 12.814144 0.439822 7.074780 -17.080227 0.733778 -5.472680 -15.261676 0.000000 0.000000 0.000000 0.000000 0.000000 0.000000 0.000000 0.000000 0.000000 0.000000 0.000000 0.000000 0.000000 0.000000 0.000000 -2.556875 -0.754677 -2.397980 0.723645 -0.976177 -3.675348 2.173302 -0.412999 -2.376954 -18.238535 -11.260464 -9.167637 19.185957 -17.194905 20.219509 7.556606 -7.726137 11.454432 0.000000 0.000000 0.000000 -1.740642 1.311227 -25.602337 7.578938 -12.867932 0.855908 3.617661 28.764994 -23.055102 0.000000 0.000000 0.000000 -7.125000 0.000000 0.000000 -25.488498 51.234521 4.142893 0.000000 0.000000 0.000000 -2.328556 7.684334 32.406219 -12.560537 -20.639934 -2.296083 -1.842842 21.622045 -14.031245 0.000000 0.000000 0.000000 7.125000 0.000000 0.000000 17.351836 16.323238 12.361597
0.256123 17.465500 0.658239 -0.711490 0.925119 5.068456 0.000000 0.000000 0.000000 -18.879421 -17.970232 1.583616 0.524649 4.641962 12.890123 0.437914 7.182436 -17.153133 0.788137 -5.667274 -15.821970 0.000000 0.000000 0.000000 0.000000 0.000000 0.000000 0.000000 0.000000 0.000000 0.000000 0.000000 0.000000 0.000000 0.000000 0.000000 -2.386814 -0.727563 -2.385791 0.689747 -0.942051 -3.651364 2.043013 -0.401244 -2.363535 -18.273322 -11.391879 -9.408785 19.136142 -17.331307 20.210825 7.502214 -7.780013 11.528983 0.000000 0.000000 0.000000 -1.394051 1.166050 -26.216693 7.387217 -12.554763 0.813734 4.228842 29.098780 -23.118790 0.000000 0.000000 0.000000 -7.125000 0.000000 0.000000 -24.957607 51.391022 4.147051 0.000000 0.000000 0.000000 -2.471737 7.710406 33.610759 -12.672438 -20.805331 -2.335686 -1.900914 20.802612 -14.067980 0.000000 0.000000 0.000000 7.125000 0.000000 0.000000 17.310551 16.286265 12.343848
